<mxfile host="app.diagrams.net" agent="Mozilla/5.0 (Windows NT 10.0; Win64; x64) AppleWebKit/537.36 (KHTML, like Gecko) Chrome/131.0.0.0 Safari/537.36" version="25.0.3">
  <diagram name="Page-1" id="y5SY14vPfTgrqFBO072k">
    <mxGraphModel dx="1434" dy="746" grid="1" gridSize="10" guides="1" tooltips="1" connect="1" arrows="1" fold="1" page="1" pageScale="1" pageWidth="827" pageHeight="1169" math="0" shadow="0">
      <root>
        <mxCell id="0" />
        <mxCell id="1" parent="0" />
        <mxCell id="a6fkmHo5CkgOSBxt7EsU-4" style="edgeStyle=orthogonalEdgeStyle;rounded=0;orthogonalLoop=1;jettySize=auto;html=1;exitX=0.5;exitY=1;exitDx=0;exitDy=0;" edge="1" parent="1" source="a6fkmHo5CkgOSBxt7EsU-2">
          <mxGeometry relative="1" as="geometry">
            <mxPoint x="340" y="200" as="targetPoint" />
          </mxGeometry>
        </mxCell>
        <mxCell id="a6fkmHo5CkgOSBxt7EsU-2" value="Caricamento input manuale" style="rounded=0;whiteSpace=wrap;html=1;fillColor=#dae8fc;strokeColor=#6c8ebf;" vertex="1" parent="1">
          <mxGeometry x="240" y="100" width="200" height="60" as="geometry" />
        </mxCell>
        <mxCell id="a6fkmHo5CkgOSBxt7EsU-8" style="edgeStyle=orthogonalEdgeStyle;rounded=0;orthogonalLoop=1;jettySize=auto;html=1;exitX=0.5;exitY=1;exitDx=0;exitDy=0;entryX=0.5;entryY=0;entryDx=0;entryDy=0;" edge="1" parent="1" source="a6fkmHo5CkgOSBxt7EsU-6" target="a6fkmHo5CkgOSBxt7EsU-7">
          <mxGeometry relative="1" as="geometry" />
        </mxCell>
        <mxCell id="a6fkmHo5CkgOSBxt7EsU-6" value="Scrittura su&lt;div&gt;Amazon S3&lt;/div&gt;" style="shape=parallelogram;perimeter=parallelogramPerimeter;whiteSpace=wrap;html=1;fixedSize=1;fillColor=#dae8fc;strokeColor=#6c8ebf;" vertex="1" parent="1">
          <mxGeometry x="240" y="200" width="200" height="60" as="geometry" />
        </mxCell>
        <mxCell id="a6fkmHo5CkgOSBxt7EsU-10" style="edgeStyle=orthogonalEdgeStyle;rounded=0;orthogonalLoop=1;jettySize=auto;html=1;exitX=0.5;exitY=1;exitDx=0;exitDy=0;entryX=0.5;entryY=0;entryDx=0;entryDy=0;" edge="1" parent="1" source="a6fkmHo5CkgOSBxt7EsU-7" target="a6fkmHo5CkgOSBxt7EsU-9">
          <mxGeometry relative="1" as="geometry" />
        </mxCell>
        <mxCell id="a6fkmHo5CkgOSBxt7EsU-7" value="Avvio processamento dati" style="rounded=0;whiteSpace=wrap;html=1;fillColor=#dae8fc;strokeColor=#6c8ebf;" vertex="1" parent="1">
          <mxGeometry x="240" y="300" width="200" height="60" as="geometry" />
        </mxCell>
        <mxCell id="a6fkmHo5CkgOSBxt7EsU-14" style="edgeStyle=orthogonalEdgeStyle;rounded=0;orthogonalLoop=1;jettySize=auto;html=1;exitX=0.5;exitY=1;exitDx=0;exitDy=0;entryX=0.5;entryY=0;entryDx=0;entryDy=0;" edge="1" parent="1" source="a6fkmHo5CkgOSBxt7EsU-9" target="a6fkmHo5CkgOSBxt7EsU-12">
          <mxGeometry relative="1" as="geometry" />
        </mxCell>
        <mxCell id="a6fkmHo5CkgOSBxt7EsU-9" value="Caricamento anagrafica&lt;div&gt;fornitori e istanze&lt;/div&gt;" style="shape=parallelogram;perimeter=parallelogramPerimeter;whiteSpace=wrap;html=1;fixedSize=1;fillColor=#dae8fc;strokeColor=#6c8ebf;" vertex="1" parent="1">
          <mxGeometry x="240" y="400" width="200" height="60" as="geometry" />
        </mxCell>
        <mxCell id="a6fkmHo5CkgOSBxt7EsU-16" style="edgeStyle=orthogonalEdgeStyle;rounded=0;orthogonalLoop=1;jettySize=auto;html=1;exitX=0.5;exitY=1;exitDx=0;exitDy=0;entryX=0.5;entryY=0;entryDx=0;entryDy=0;" edge="1" parent="1" source="a6fkmHo5CkgOSBxt7EsU-12" target="a6fkmHo5CkgOSBxt7EsU-15">
          <mxGeometry relative="1" as="geometry" />
        </mxCell>
        <mxCell id="a6fkmHo5CkgOSBxt7EsU-12" value="Avvio fase di Ricevibilità" style="rounded=0;whiteSpace=wrap;html=1;fillColor=#dae8fc;strokeColor=#6c8ebf;" vertex="1" parent="1">
          <mxGeometry x="240" y="500" width="200" height="60" as="geometry" />
        </mxCell>
        <mxCell id="a6fkmHo5CkgOSBxt7EsU-13" value="Avvio fase di Ammissibilità" style="rounded=0;whiteSpace=wrap;html=1;fillColor=#dae8fc;strokeColor=#6c8ebf;" vertex="1" parent="1">
          <mxGeometry x="240" y="720" width="200" height="60" as="geometry" />
        </mxCell>
        <mxCell id="a6fkmHo5CkgOSBxt7EsU-17" style="edgeStyle=orthogonalEdgeStyle;rounded=0;orthogonalLoop=1;jettySize=auto;html=1;exitX=0.5;exitY=1;exitDx=0;exitDy=0;entryX=0.5;entryY=0;entryDx=0;entryDy=0;" edge="1" parent="1" source="a6fkmHo5CkgOSBxt7EsU-15" target="a6fkmHo5CkgOSBxt7EsU-13">
          <mxGeometry relative="1" as="geometry" />
        </mxCell>
        <mxCell id="a6fkmHo5CkgOSBxt7EsU-21" value="Sì" style="edgeLabel;html=1;align=center;verticalAlign=middle;resizable=0;points=[];" vertex="1" connectable="0" parent="a6fkmHo5CkgOSBxt7EsU-17">
          <mxGeometry x="-0.35" y="-1" relative="1" as="geometry">
            <mxPoint as="offset" />
          </mxGeometry>
        </mxCell>
        <mxCell id="a6fkmHo5CkgOSBxt7EsU-19" style="edgeStyle=orthogonalEdgeStyle;rounded=0;orthogonalLoop=1;jettySize=auto;html=1;exitX=1;exitY=0.5;exitDx=0;exitDy=0;" edge="1" parent="1" source="a6fkmHo5CkgOSBxt7EsU-15" target="a6fkmHo5CkgOSBxt7EsU-18">
          <mxGeometry relative="1" as="geometry" />
        </mxCell>
        <mxCell id="a6fkmHo5CkgOSBxt7EsU-20" value="No" style="edgeLabel;html=1;align=center;verticalAlign=middle;resizable=0;points=[];" vertex="1" connectable="0" parent="a6fkmHo5CkgOSBxt7EsU-19">
          <mxGeometry x="-0.1429" y="1" relative="1" as="geometry">
            <mxPoint as="offset" />
          </mxGeometry>
        </mxCell>
        <mxCell id="a6fkmHo5CkgOSBxt7EsU-15" value="Istanze ricevibili" style="rhombus;whiteSpace=wrap;html=1;fillColor=#dae8fc;strokeColor=#6c8ebf;" vertex="1" parent="1">
          <mxGeometry x="300" y="600" width="80" height="80" as="geometry" />
        </mxCell>
        <mxCell id="a6fkmHo5CkgOSBxt7EsU-18" value="Modifica istanze con&lt;div&gt;dettagli di non ricevibilità&lt;/div&gt;" style="shape=parallelogram;perimeter=parallelogramPerimeter;whiteSpace=wrap;html=1;fixedSize=1;fillColor=#dae8fc;strokeColor=#6c8ebf;" vertex="1" parent="1">
          <mxGeometry x="440" y="610" width="200" height="60" as="geometry" />
        </mxCell>
      </root>
    </mxGraphModel>
  </diagram>
</mxfile>
